<svg width="100" height="100" viewBox="0 0 100 100" fill="none" xmlns="http://www.w3.org/2000/svg">
<path d="M62.2083 74.1458C61.8958 74.1458 61.5833 73.9792 61.3958 73.7083C61.1042 73.25 61.2292 72.6667 61.6875 72.375C63.8125 71.0208 65.7917 69.4167 67.6042 67.6042C81.3333 53.875 81.3333 31.5417 67.6042 17.8125C60.9583 11.1667 52.1042 7.5 42.7083 7.5C33.3125 7.5 24.4583 11.1667 17.8125 17.8125C11.1667 24.4583 7.5 33.3125 7.5 42.7083C7.5 52.1042 11.1667 60.9583 17.8125 67.6042C19.3542 69.1458 21.0208 70.5417 22.8125 71.75C23.25 72.0625 23.375 72.6667 23.0625 73.1042C22.75 73.5417 22.1458 73.6667 21.7083 73.3542C19.8333 72.0625 18.0625 70.5833 16.4375 68.9792C9.41667 61.9583 5.5625 52.625 5.5625 42.7083C5.5625 32.7917 9.4375 23.4583 16.4375 16.4375C23.4583 9.41667 32.7917 5.5625 42.7083 5.5625C52.625 5.5625 61.9583 9.4375 68.9792 16.4375C83.4583 30.9167 83.4583 54.5 68.9792 68.9792C67.0833 70.875 64.9792 72.5625 62.75 74C62.5833 74.1042 62.3958 74.1458 62.2292 74.1458H62.2083Z" fill="#22223B" stroke="#22223B" stroke-miterlimit="10"/>
<path d="M86.375 94.4584C84.7292 94.4584 83.0625 93.8334 81.7917 92.5626L72.2083 82.9792C71 81.7709 70.3125 80.1459 70.3125 78.3959C70.3125 76.6459 70.9792 75.0417 72.2083 73.8126L73.8333 72.1876C75.0417 70.9792 76.6667 70.2917 78.4167 70.2917C80.1667 70.2917 81.7708 70.9584 83 72.1876L92.5833 81.7709C95.1042 84.2917 95.1042 88.3959 92.5833 90.9167L90.9583 92.5417C89.6875 93.8126 88.0417 94.4376 86.375 94.4376V94.4584ZM78.3958 72.2709C77.1875 72.2709 76.0417 72.7292 75.1875 73.5834L73.5625 75.2084C72.7083 76.0626 72.25 77.1876 72.25 78.4167C72.25 79.6459 72.7083 80.7709 73.5625 81.6251L83.1458 91.2084C84.9167 92.9792 87.7917 92.9792 89.5417 91.2084L91.1667 89.5834C92.9375 87.8126 92.9375 84.9376 91.1667 83.1876L81.5833 73.6042C80.7292 72.7501 79.6042 72.2917 78.375 72.2917L78.3958 72.2709Z" fill="#22223B" stroke="#22223B" stroke-miterlimit="10"/>
<path d="M50.9792 67.9584C50.4375 67.9584 50 67.5209 50 66.9792C50 62.9167 51.875 59.1251 55 56.8126C60.2917 52.9167 63.4583 46.6459 63.4583 40.0834C63.4583 34.2917 61.125 28.9167 56.9167 24.9376C52.6875 20.9792 47.1667 18.9792 41.3542 19.3542C36.375 19.6667 31.6458 21.8126 28.0417 25.3959C24.4375 28.9792 22.2917 33.6876 21.9583 38.6876C21.5 45.7292 24.5833 52.4584 30.2083 56.6876C33.4792 59.1459 35.375 62.8126 35.375 66.7292C35.375 67.2709 34.9375 67.7084 34.3958 67.7084C33.8542 67.7084 33.4167 67.2709 33.4167 66.7292C33.4167 63.4376 31.8125 60.3334 29.0208 58.2292C22.875 53.6042 19.5 46.2501 20 38.5417C20.3542 33.0834 22.7292 27.9167 26.6458 24.0001C30.5833 20.0834 35.75 17.7292 41.2083 17.3959C47.5625 17.0001 53.6042 19.1667 58.2083 23.5001C62.7708 27.7709 65.375 33.8126 65.375 40.0626C65.375 47.2501 61.9167 54.0834 56.125 58.3542C53.5 60.2917 51.9167 63.5209 51.9167 66.9584C51.9167 67.5001 51.4792 67.9376 50.9375 67.9376L50.9792 67.9584Z" fill="#22223B" stroke="#22223B" stroke-miterlimit="10"/>
<path d="M50.9792 75.9376H34.4167C33.875 75.9376 33.4375 75.5001 33.4375 74.9584C33.4375 74.4168 33.875 73.9792 34.4167 73.9792H50.9792C51.5208 73.9792 51.9583 74.4168 51.9583 74.9584C51.9583 75.5001 51.5208 75.9376 50.9792 75.9376Z" fill="#22223B" stroke="#22223B" stroke-miterlimit="10"/>
<path d="M47.9583 83.3541H37.4375C36.8958 83.3541 36.4583 82.9166 36.4583 82.3749C36.4583 81.8333 36.8958 81.3958 37.4375 81.3958H47.9583C48.5 81.3958 48.9375 81.8333 48.9375 82.3749C48.9375 82.9166 48.5 83.3541 47.9583 83.3541Z" fill="#22223B" stroke="#22223B" stroke-miterlimit="10"/>
<path d="M42.7083 67.9583C42.1667 67.9583 41.7292 67.5208 41.7292 66.9791V55.1874C41.7292 54.6458 42.1667 54.2083 42.7083 54.2083C43.25 54.2083 43.6875 54.6458 43.6875 55.1874V66.9791C43.6875 67.5208 43.25 67.9583 42.7083 67.9583Z" fill="#22223B" stroke="#22223B" stroke-miterlimit="10"/>
<path d="M42.7083 56.1666C42.4583 56.1666 42.2083 56.0624 42.0208 55.8749L36.75 50.5208C36.375 50.1458 36.375 49.5208 36.75 49.1458C37.125 48.7708 37.75 48.7708 38.125 49.1458L43.3958 54.4999C43.7708 54.8749 43.7708 55.4999 43.3958 55.8749C43.2083 56.0624 42.9583 56.1458 42.7083 56.1458V56.1666Z" fill="#22223B" stroke="#22223B" stroke-miterlimit="10"/>
<path d="M42.7083 56.1666C42.4583 56.1666 42.2083 56.0832 42.0208 55.8957C41.6458 55.5207 41.625 54.8957 42.0208 54.5207L47.2917 49.1666C47.6667 48.7916 48.2917 48.7707 48.6667 49.1666C49.0417 49.5416 49.0625 50.1666 48.6667 50.5416L43.3958 55.8957C43.2083 56.0832 42.9583 56.1874 42.7083 56.1874V56.1666Z" fill="#22223B" stroke="#22223B" stroke-miterlimit="10"/>
</svg>
