<svg width="64" height="63" viewBox="0 0 64 63" fill="none" xmlns="http://www.w3.org/2000/svg">
<path d="M51.1467 60.0863H31.4667C31.28 60.0863 31.0934 59.9944 30.9734 59.85C30.8534 59.7056 30.8134 59.5088 30.8534 59.325L34.5867 44.0081C34.6534 43.7325 34.9067 43.5356 35.2 43.5356H54.88C55.0667 43.5356 55.2534 43.6275 55.3734 43.7719C55.4934 43.9163 55.5334 44.1131 55.4934 44.2969L51.76 59.6138C51.6934 59.8894 51.44 60.0863 51.1467 60.0863ZM32.2667 58.8394H50.6534L54.08 44.7694H35.6934L32.2667 58.8394Z" fill="#22223B" stroke="#22223B" stroke-miterlimit="10"/>
<path d="M31.4667 60.0863H22.04C21.6933 60.0863 21.4133 59.8107 21.4133 59.4694C21.4133 59.1282 21.6933 58.8525 22.04 58.8525H31.4667C31.8133 58.8525 32.0933 59.1282 32.0933 59.4694C32.0933 59.8107 31.8133 60.0863 31.4667 60.0863Z" fill="#22223B" stroke="#22223B" stroke-miterlimit="10"/>
<path d="M7.21334 60.0731C6.86667 60.0731 6.58667 59.7975 6.58667 59.4562V49.9406C6.58667 45.2419 10.4667 41.4225 15.24 41.4225H24.9467C26.3467 41.4225 27.7467 41.7637 28.9733 42.4069C29.28 42.5644 29.4 42.945 29.24 43.2469C29.08 43.5487 28.6933 43.6669 28.3867 43.5094C27.3333 42.9581 26.1467 42.6694 24.9467 42.6694H15.24C11.16 42.6694 7.84 45.9375 7.84 49.9537V59.4694C7.84 59.8106 7.56 60.0862 7.21334 60.0862V60.0731Z" fill="#22223B" stroke="#22223B" stroke-miterlimit="10"/>
<path d="M20.0933 36.6056C15.5333 36.6056 11.8267 32.9568 11.8267 28.4681C11.8267 23.9793 15.5333 20.3306 20.0933 20.3306C24.6533 20.3306 28.36 23.9793 28.36 28.4681C28.36 32.9568 24.6533 36.6056 20.0933 36.6056ZM20.0933 21.5643C16.2267 21.5643 13.08 24.6618 13.08 28.4681C13.08 32.2743 16.2267 35.3718 20.0933 35.3718C23.96 35.3718 27.1067 32.2743 27.1067 28.4681C27.1067 24.6618 23.96 21.5643 20.0933 21.5643Z" fill="#22223B" stroke="#22223B" stroke-miterlimit="10"/>
<path d="M44.5333 36.3824H41.8133C40.0933 36.3824 38.6933 35.0043 38.6933 33.3112V31.9462C38.6933 30.8568 38.2399 29.8462 37.4399 29.1899C35.1333 27.2868 33.9866 24.3731 34.3466 21.4199C34.8266 17.4562 38.1199 14.2537 42.1466 13.8074C44.6799 13.5318 47.2133 14.3193 49.0933 15.9731C50.9733 17.6268 52.0533 20.0156 52.0533 22.4962C52.0533 24.9768 50.9199 27.4837 48.9333 29.1506C48.1066 29.8331 47.6399 30.8174 47.6399 31.8412V33.2981C47.6399 34.9912 46.2399 36.3693 44.5199 36.3693L44.5333 36.3824ZM43.1866 14.9887C42.8933 14.9887 42.5999 15.0018 42.2933 15.0412C38.8266 15.4218 36.0133 18.1649 35.5999 21.5774C35.2933 24.1237 36.2799 26.6174 38.2533 28.2449C39.3333 29.1374 39.9466 30.4893 39.9466 31.9462V33.3112C39.9466 34.3218 40.7733 35.1356 41.7999 35.1356H44.5199C45.5466 35.1356 46.3733 34.3218 46.3733 33.3112V31.8543C46.3733 30.4631 46.9999 29.1374 48.1066 28.2187C49.8133 26.7881 50.7866 24.7012 50.7866 22.5093C50.7866 20.3174 49.8533 18.3356 48.2399 16.9049C46.8266 15.6581 45.0399 14.9887 43.1599 14.9887H43.1866Z" fill="#22223B" stroke="#22223B" stroke-miterlimit="10"/>
<path d="M47.0133 23.1263C46.6666 23.1263 46.3866 22.8507 46.3866 22.5094C46.3866 20.7638 44.9466 19.3463 43.1733 19.3463C42.8266 19.3463 42.5466 19.0707 42.5466 18.7294C42.5466 18.3882 42.8266 18.1125 43.1733 18.1125C45.64 18.1125 47.6533 20.0944 47.6533 22.5225C47.6533 22.8638 47.3733 23.1394 47.0266 23.1394L47.0133 23.1263Z" fill="#22223B" stroke="#22223B" stroke-miterlimit="10"/>
<path d="M44.2534 40.2938H42.08C41.7334 40.2938 41.4534 40.0182 41.4534 39.6769C41.4534 39.3357 41.7334 39.0601 42.08 39.0601H44.2534C44.6 39.0601 44.88 39.3357 44.88 39.6769C44.88 40.0182 44.6 40.2938 44.2534 40.2938Z" fill="#22223B" stroke="#22223B" stroke-miterlimit="10"/>
<path d="M43.1733 9.63376C42.8266 9.63376 42.5466 9.35813 42.5466 9.01688V3.54375C42.5466 3.2025 42.8266 2.92688 43.1733 2.92688C43.52 2.92688 43.8 3.2025 43.8 3.54375V9.01688C43.8 9.35813 43.52 9.63376 43.1733 9.63376Z" fill="#22223B" stroke="#22223B" stroke-miterlimit="10"/>
<path d="M33.4801 13.5844C33.3201 13.5844 33.1601 13.5187 33.0401 13.4006L29.1068 9.52873C28.8668 9.29248 28.8668 8.89873 29.1068 8.64936C29.3468 8.41311 29.7468 8.41311 30.0001 8.64936L33.9334 12.5212C34.1734 12.7575 34.1734 13.1512 33.9334 13.4006C33.8134 13.5187 33.6534 13.5844 33.4934 13.5844H33.4801Z" fill="#22223B" stroke="#22223B" stroke-miterlimit="10"/>
<path d="M52.8666 13.5844C52.7066 13.5844 52.5466 13.5187 52.4266 13.4006C52.1866 13.1644 52.1866 12.7706 52.4266 12.5212L56.3599 8.64936C56.5999 8.41311 56.9999 8.41311 57.2532 8.64936C57.4932 8.88561 57.4932 9.27936 57.2532 9.52873L53.3199 13.4006C53.1999 13.5187 53.0399 13.5844 52.8799 13.5844H52.8666Z" fill="#22223B" stroke="#22223B" stroke-miterlimit="10"/>
</svg>
