<svg width="100" height="100" viewBox="0 0 100 100" fill="none" xmlns="http://www.w3.org/2000/svg">
<path d="M85.5208 64.9375H85.0833C84.5208 64.9375 84.0625 64.4791 84.0625 63.9166C84.0625 63.3541 84.5208 62.8958 85.0833 62.8958H85.5208C87.3125 62.8958 88.7708 61.4375 88.7708 59.6458V11.9375C88.7708 10.1458 87.3125 8.68746 85.5208 8.68746H14.4791C12.6875 8.68746 11.25 10.1458 11.25 11.9375V59.6666C11.25 61.4583 12.7083 62.9166 14.4791 62.9166H49.625C50.1875 62.9166 50.6458 63.375 50.6458 63.9375C50.6458 64.5 50.1875 64.9583 49.625 64.9583H14.4791C11.5833 64.9583 9.20831 62.5833 9.20831 59.6875V11.9375C9.20831 9.02079 11.5625 6.66663 14.4791 6.66663H85.5208C88.4375 6.66663 90.7917 9.04163 90.7917 11.9375V59.6666C90.7917 62.5833 88.4166 64.9375 85.5208 64.9375Z" fill="#22223B" stroke="#22223B" stroke-miterlimit="10"/>
<path d="M52.0625 33.2292C47.1667 33.2292 43.1875 29.2501 43.1875 24.3542C43.1875 19.4584 47.1667 15.4792 52.0625 15.4792C56.9583 15.4792 60.9375 19.4584 60.9375 24.3542C60.9375 29.2501 56.9583 33.2292 52.0625 33.2292ZM52.0625 17.5001C48.2917 17.5001 45.2083 20.5834 45.2083 24.3542C45.2083 28.1251 48.2917 31.2084 52.0625 31.2084C55.8333 31.2084 58.9167 28.1251 58.9167 24.3542C58.9167 20.5834 55.8333 17.5001 52.0625 17.5001Z" fill="#22223B" stroke="#22223B" stroke-miterlimit="10"/>
<path d="M48.7292 48.8541C48.5 48.8541 48.2709 48.7707 48.0834 48.6249L37.7917 39.9582L25.3959 29.5207L19.25 34.4999C18.8125 34.8541 18.1667 34.7916 17.8125 34.3541C17.4584 33.9166 17.5209 33.2707 17.9584 32.9166L24.7709 27.4166C25.1459 27.1041 25.6875 27.1249 26.0625 27.4166L48.8542 46.6041L71.7709 33.8541C72.2709 33.5832 72.875 33.7499 73.1459 34.2499C73.4167 34.7499 73.25 35.3541 72.75 35.6249L49.2084 48.7082C49.0625 48.7916 48.875 48.8332 48.7084 48.8332L48.7292 48.8541Z" fill="#22223B" stroke="#22223B" stroke-miterlimit="10"/>
<path d="M54.4375 90.2292C54.1667 90.2292 53.8959 90.125 53.6875 89.9167C53.3125 89.5 53.3334 88.8542 53.7292 88.4792C59.125 83.4167 64.75 75.5 68.7709 67.2709C74.2917 55.9792 75.4792 47.375 75.3959 41.7709C70.2709 44.4584 64.5625 54.8125 59.5209 70.6459C59.3542 71.1875 58.7709 71.4792 58.25 71.3125C57.7084 71.1459 57.4167 70.5625 57.5834 70.0417C60.9167 59.5834 67.75 41.6875 76.0834 39.3334C76.375 39.25 76.7084 39.3126 76.9584 39.4792C77.2084 39.6667 77.375 39.9375 77.375 40.25C78 50.6459 74.0417 61.1667 70.6042 68.1667C66.4792 76.6042 60.6875 84.75 55.125 89.9792C54.9375 90.1667 54.6875 90.25 54.4375 90.25V90.2292Z" fill="#22223B" stroke="#22223B" stroke-miterlimit="10"/>
<path d="M47.6458 93.3332C42.125 93.3332 37.6458 88.8541 37.6458 83.3333C37.6458 77.8124 42.125 73.3333 47.6458 73.3333C53.1666 73.3333 57.6458 77.8124 57.6458 83.3333C57.6458 88.8541 53.1666 93.3332 47.6458 93.3332ZM47.6458 75.3749C43.25 75.3749 39.6875 78.9374 39.6875 83.3333C39.6875 87.7291 43.25 91.2916 47.6458 91.2916C52.0416 91.2916 55.6041 87.7291 55.6041 83.3333C55.6041 78.9374 52.0416 75.3749 47.6458 75.3749Z" fill="#22223B" stroke="#22223B" stroke-miterlimit="10"/>
<path d="M71.9792 90.2293C71.7292 90.2293 71.4792 90.1459 71.2917 89.9584C69.6042 88.3751 67.8959 86.5209 66.1875 84.4376C65.8334 84.0001 65.8959 83.3542 66.3334 83.0001C66.7709 82.6459 67.4167 82.7084 67.7709 83.1459C69.4167 85.1667 71.0834 86.9584 72.6875 88.4793C73.1042 88.8543 73.125 89.5001 72.7292 89.9167C72.5209 90.1251 72.25 90.2293 71.9792 90.2293Z" fill="#22223B" stroke="#22223B" stroke-miterlimit="10"/>
<path d="M78.7708 93.3332C73.25 93.3332 68.7708 88.8541 68.7708 83.3333C68.7708 77.8124 73.25 73.3333 78.7708 73.3333C84.2917 73.3333 88.7708 77.8124 88.7708 83.3333C88.7708 88.8541 84.2917 93.3332 78.7708 93.3332ZM78.7708 75.3749C74.375 75.3749 70.8125 78.9374 70.8125 83.3333C70.8125 87.7291 74.375 91.2916 78.7708 91.2916C83.1667 91.2916 86.7292 87.7291 86.7292 83.3333C86.7292 78.9374 83.1667 75.3749 78.7708 75.3749Z" fill="#22223B" stroke="#22223B" stroke-miterlimit="10"/>
</svg>
