<svg width="64" height="64" viewBox="0 0 64 64" fill="none" xmlns="http://www.w3.org/2000/svg">
<path d="M53.9866 43.0267H51.3599C51.0133 43.0267 50.7466 42.7467 50.7466 42.4134C50.7466 42.08 51.0266 41.8 51.3599 41.8H53.9866C54.9599 41.8 55.7466 41.0134 55.7466 40.04V8.44004C55.7466 7.4667 54.9599 6.68004 53.9866 6.68004H10.0133C9.03994 6.68004 8.25328 7.4667 8.25328 8.44004V40.04C8.25328 41.0134 9.03994 41.8 10.0133 41.8H24.2933C24.6399 41.8 24.9066 42.08 24.9066 42.4134C24.9066 42.7467 24.6266 43.0267 24.2933 43.0267H10.0133C8.35994 43.0267 7.02661 41.68 7.02661 40.04V8.44004C7.02661 6.7867 8.37328 5.45337 10.0133 5.45337H53.9999C55.6533 5.45337 56.9866 6.80004 56.9866 8.44004V40.04C56.9866 41.6934 55.6399 43.0267 53.9999 43.0267H53.9866Z" fill="#22223B" stroke="#22223B" stroke-miterlimit="10"/>
<path d="M18.9201 21.2667C16.1601 21.2667 13.9067 19.0133 13.9067 16.2533C13.9067 13.4933 16.1601 11.24 18.9201 11.24C21.6801 11.24 23.9334 13.4933 23.9334 16.2533C23.9334 19.0133 21.6801 21.2667 18.9201 21.2667ZM18.9201 12.48C16.8401 12.48 15.1467 14.1733 15.1467 16.2533C15.1467 18.3333 16.8401 20.0267 18.9201 20.0267C21.0001 20.0267 22.6934 18.3333 22.6934 16.2533C22.6934 14.1733 21.0001 12.48 18.9201 12.48Z" fill="#22223B" stroke="#22223B" stroke-miterlimit="10"/>
<path d="M11.6267 32.6533C11.3867 32.6533 11.16 32.52 11.0667 32.2933C10.9334 31.9866 11.0667 31.6133 11.3734 31.48L23.76 25.9066C24.8267 25.4266 26.0534 25.52 27.04 26.1333L31.4667 28.9066C31.7334 29.0666 32.0267 29.1866 32.3334 29.2266C32.7067 29.28 33.0934 29.24 33.44 29.1066C33.44 29.1066 33.44 29.1066 33.4534 29.1066C33.56 29.0666 33.68 29.0133 33.7734 28.96L45.92 21.9333C47.08 21.2666 48.48 21.3066 49.6 22.04L52.7067 24.1066C52.9867 24.2933 53.0667 24.68 52.88 24.96C52.6934 25.24 52.3067 25.32 52.0267 25.1333L48.92 23.0666C48.2134 22.6 47.28 22.5733 46.5467 23L34.4134 30.0266C34.2534 30.12 34.0667 30.2133 33.8667 30.28C33.32 30.48 32.72 30.5466 32.1467 30.4666C31.68 30.4 31.2134 30.24 30.8 29.9733L26.3734 27.2C25.7334 26.8 24.9467 26.7466 24.2534 27.0533L11.8667 32.6266C11.7867 32.6666 11.6934 32.68 11.6134 32.68L11.6267 32.6533Z" fill="#22223B" stroke="#22223B" stroke-miterlimit="10"/>
<path d="M42.2535 58.5466C41.4668 58.5466 40.6801 58.44 39.9068 58.2133C39.8268 58.2133 39.7335 58.2133 39.6535 58.1733L28.5468 54.0266C27.2135 53.5866 26.4935 52.1466 26.9335 50.8133C27.3735 49.48 28.8135 48.7466 30.1601 49.1866L33.4535 50.28L26.2668 39.5066C25.4801 38.32 25.8001 36.72 26.9868 35.9333C28.1735 35.1466 29.7735 35.4666 30.5601 36.6533L34.4801 42.5333L41.4135 39.2133C43.1735 38.4133 45.2135 39 46.2668 40.6L49.2668 45.1066C51.9068 49.0666 50.9201 54.44 47.0668 57.0666C45.6268 58.0533 43.9468 58.56 42.2535 58.56V58.5466ZM39.8801 56.9466C39.8801 56.9466 40.0001 56.9466 40.0535 56.9733C42.2001 57.64 44.5068 57.2933 46.3601 56.0266C49.6535 53.7733 50.4934 49.1733 48.2268 45.7733L45.2268 41.2666C44.5068 40.1733 43.1068 39.7866 41.9201 40.32L34.5201 43.8666C34.2401 44 33.9068 43.9066 33.7335 43.6533L29.5201 37.3333C29.1068 36.72 28.2801 36.5466 27.6668 36.96C27.0535 37.3733 26.8801 38.2 27.2935 38.8133L35.4801 51.08C35.6268 51.2933 35.6135 51.5866 35.4535 51.8C35.2935 52.0133 35.0135 52.0933 34.7735 52.0133L29.7735 50.36C29.0801 50.1333 28.3468 50.5066 28.1201 51.2C27.8935 51.8933 28.2668 52.6266 28.9601 52.8533C28.9601 52.8533 28.9735 52.8533 28.9868 52.8533L39.8935 56.92L39.8801 56.9466Z" fill="#22223B" stroke="#22223B" stroke-miterlimit="10"/>
</svg>
