<svg width="43" height="43" viewBox="0 0 43 43" fill="none" xmlns="http://www.w3.org/2000/svg">
<path d="M39.44 11.7206H35.51V0.979167C35.51 0.440625 35.06 0 34.51 0H8.46C7.91 0 7.46 0.440625 7.46 0.979167V11.7206H3.53C1.58 11.7206 0 13.2677 0 15.1869V31.3235C0 33.2329 1.58 34.78 3.53 34.7898H7.88V41.3992C7.88 41.9377 8.33 42.3783 8.88 42.3783H34.23C34.78 42.3783 35.23 41.9377 35.23 41.3992V34.7898H39.44C41.39 34.7898 42.97 33.2427 42.98 31.3235V15.1869C42.98 13.2775 41.4 11.7304 39.44 11.7206ZM33.52 1.95833V11.7206H9.46V1.95833H33.52ZM33.23 40.4004H9.88V25.1254H33.23V40.4004ZM40.98 31.3137C40.98 32.1362 40.32 32.8119 39.48 32.8217H35.24V24.1462C35.24 23.6077 34.79 23.1671 34.24 23.1671H8.88C8.33 23.1671 7.88 23.6077 7.88 24.1462V32.8217H3.53C2.69 32.8217 2 32.1754 2 31.3529V15.1869C2 14.3644 2.66 13.6888 3.5 13.679H39.44C40.28 13.679 40.97 14.3252 40.98 15.1477V31.3137Z" fill="#22223B"/>
<path d="M29.9101 27.7986H13.3601C12.8101 27.7986 12.3601 28.2392 12.3601 28.7778C12.3601 29.3163 12.8101 29.7569 13.3601 29.7569H29.9101C30.4601 29.7569 30.9101 29.3163 30.9101 28.7778C30.9101 28.2392 30.4601 27.7986 29.9101 27.7986Z" fill="#22223B"/>
<path d="M29.9101 31.7838H13.3601C12.8101 31.7838 12.3601 32.2244 12.3601 32.763C12.3601 33.3015 12.8101 33.7421 13.3601 33.7421H29.9101C30.4601 33.7421 30.9101 33.3015 30.9101 32.763C30.9101 32.2244 30.4601 31.7838 29.9101 31.7838Z" fill="#22223B"/>
<path d="M29.9101 35.7689H13.3601C12.8101 35.7689 12.3601 36.2095 12.3601 36.7481C12.3601 37.2866 12.8101 37.7273 13.3601 37.7273H29.9101C30.4601 37.7273 30.9101 37.2866 30.9101 36.7481C30.9101 36.2095 30.4601 35.7689 29.9101 35.7689Z" fill="#22223B"/>
</svg>
